<?xml version="1.0" encoding="UTF-8" standalone="no"?>
<!-- Created with Inkscape (http://www.inkscape.org/) -->

<svg
   version="1.1"
   id="svg9"
   width="240"
   height="240"
   viewBox="0 0 240 240"
   xmlns="http://www.w3.org/2000/svg"
   xmlns:svg="http://www.w3.org/2000/svg">
  <defs
     id="defs13" />
  <g
     id="g15">
    <g
       id="g1841"
       transform="translate(1.4142164,-3.8890873)">
      <path
         style="fill:#fd5a03;stroke-width:1.33333"
         d="m 79.07239,222.7617 c -6.26388,-3.81933 -8.62958,-8.35464 -9.40649,-18.03328 -0.90931,-11.32817 1.38528,-19.24936 7.21208,-24.89692 3.93883,-3.81766 5.53967,-4.4618 11.08861,-4.4618 5.06529,0 7.27615,0.72982 10.09778,3.33334 4.64934,4.28994 7.26891,10.52109 7.26891,17.2905 v 5.37616 H 91.99995 c -10.79199,0 -13.33333,-0.3705 -13.33333,-1.94392 0,-1.50228 2.34761,-2.03238 10.33333,-2.33333 l 10.33333,-0.38941 -0.44885,-4 c -1.47338,-13.13024 -13.15686,-17.09859 -20.66191,-7.01792 -3.43006,4.60722 -4.45247,17.01413 -1.99619,24.2239 3.26678,9.58876 13.73256,13.51867 21.84538,8.20294 3.29491,-2.15891 5.92824,-1.83243 5.92824,0.73496 0,2.06896 -10.8318,6.46161 -16,6.48852 -2.56667,0.0133 -6.58407,-1.14482 -8.92756,-2.57374 z m 42.5167,-0.0133 c -6.12217,-3.84075 -9.53057,-11.96325 -9.53057,-22.712 0,-10.80031 3.41215,-18.90383 9.53057,-22.63413 7.20963,-4.3956 14.64313,-3.2186 19.97797,3.16322 2.27032,2.7159 2.34557,2.41567 2.38853,-9.52909 0.0411,-11.42965 0.23975,-12.33333 2.71103,-12.33333 2.5941,0 2.66666,0.88889 2.66666,32.66666 0,31.77778 -0.0725,32.66667 -2.66666,32.66667 -1.84904,-3e-5 -2.66667,-0.88892 -2.66667,-2.89911 v -2.89909 l -3.25031,3.05352 c -4.64604,4.36472 -13.4577,5.0347 -19.16055,1.45685 z m 16.26155,-5.20324 c 8.51843,-7.36207 8.10262,-29.18789 -0.67318,-35.33471 -5.01472,-3.51244 -11.08712,-2.79224 -14.92624,1.7703 -7.77085,9.23513 -5.48096,31.53721 3.64356,35.48594 4.53056,1.96064 8.13401,1.38151 11.95586,-1.92153 z m 28.81598,5.48917 c -12.25212,-6.12062 -14.23034,-30.86864 -3.38654,-42.36644 5.3069,-5.62693 10.30292,-6.93697 17.1804,-4.50494 7.3982,2.61616 10.57622,7.45893 11.28002,17.18886 l 0.57996,8.01792 h -13.49359 c -11.10541,0 -13.49359,-0.35397 -13.49359,-2 0,-1.61381 2.09359,-2 10.84223,-2 h 10.84223 l -0.73294,-5.46438 c -2.14208,-15.97038 -19.3063,-15.88206 -23.61562,0.12146 -3.2552,12.08891 1.28814,24.84738 9.85801,27.68298 4.44867,1.47197 5.79324,1.34801 11.16819,-1.02958 4.64524,-2.05481 6.35257,-2.31156 7.11952,-1.07061 1.17888,1.90747 -1.53707,4.01484 -8.01391,6.21823 -6.29736,2.14232 -10.68989,1.92626 -16.13437,-0.79355 z m -164,-22.99796 c 0,-23.11111 0.0988,-24 2.66666,-24 2.01038,0 2.67665,0.9024 2.70721,3.66667 0.0347,3.13473 0.23771,3.32816 1.39961,1.3333 1.74771,-3.00064 8.22074,-6.34676 12.1603,-6.28605 4.24941,0.0655 9.12562,2.99337 11.08612,6.6566 l 1.64676,3.07701 1.53953,-2.87664 c 1.78075,-3.32737 8.06344,-6.90422 12.12714,-6.90422 4.91575,0 10.81203,4.02222 12.7717,8.7124 1.32094,3.16145 1.89497,10.00082 1.89497,22.5781 0,16.92359 -0.15932,18.04283 -2.56831,18.04283 -2.3966,0 -2.59716,-1.28339 -3,-19.19761 -0.37408,-16.63542 -0.77069,-19.57163 -2.97168,-22 -3.90905,-4.3129 -10.43865,-3.7345 -14.67482,1.29992 -3.33841,3.96746 -3.45186,4.6905 -3.45186,22 0,16.70834 -0.16871,17.89769 -2.53881,17.89769 -2.35122,0 -2.57288,-1.35917 -3,-18.39535 -0.5457,-21.76594 -2.02826,-25.60465 -9.88893,-25.60465 -5.88074,0 -10.55833,4.66033 -11.71773,11.67449 -0.45385,2.7457 -0.83179,11.14218 -0.83986,18.65884 -0.0137,12.77288 -0.18907,13.66667 -2.68134,13.66667 -2.5679,0 -2.66666,-0.88889 -2.66666,-24 z m 197.6359,0.35047 c 0.32784,-21.29475 0.59643,-23.69418 2.69743,-24.09778 1.82256,-0.3501 2.33333,0.46956 2.33333,3.74448 v 4.1927 l 4.49078,-4.7616 c 4.5809,-4.85718 5.92086,-5.32967 11.14404,-3.92955 2.4349,0.65269 2.7259,1.24827 1.61974,3.31512 -0.77678,1.45145 -2.77869,2.51949 -4.72246,2.51949 -9.02259,0 -11.19876,5.22062 -11.19876,26.86563 v 15.80104 h -3.3641 -3.3641 z m 30.3641,-0.35047 c 0,-23.11111 0.0988,-24 2.66666,-24 2.56791,0 2.66667,0.88889 2.66667,24 0,23.11111 -0.0988,24 -2.66667,24 -2.5679,0 -2.66666,-0.88889 -2.66666,-24 z M 87.99995,169.97016 c 0,-2.4999 4.33086,-8.37596 6.61327,-8.97283 3.39598,-0.88807 3.39038,-0.36031 -0.0553,5.215 C 92.21644,170.00092 88,172.41702 88,169.97016 Z m 142.22191,-6.50298 c -1.01672,-2.64952 2.75318,-5.65572 4.6783,-3.7306 1.84114,1.84114 0.46179,5.63312 -2.04905,5.63312 -1.04455,0 -2.22772,-0.85613 -2.62925,-1.90252 z M 78.41796,149.35698 C 59.48551,146.35166 38.6071,134.64569 23.19599,118.3955 14.15592,108.86323 3.99995,94.974324 3.99995,92.143745 c 0,-0.816836 2.57668,-1.440709 5.95032,-1.440709 5.76497,0 6.11576,0.24362 11.26158,7.821184 12.24756,18.03533 33.3637,34.37599 52.12143,40.33399 11.38605,3.61655 32.06548,4.46829 44.66667,1.83975 5.13333,-1.07079 14.43333,-4.44722 20.66667,-7.50317 14.41253,-7.06589 27.86202,-20.17384 36.09932,-35.1826 l 5.65468,-10.303114 1.84989,3.530668 c 1.69852,3.241732 1.49569,4.209873 -2.47841,11.830316 -2.76887,5.30935 -8.4783,12.45207 -15.84667,19.82483 -17.99212,18.00281 -36.70683,25.90061 -64.15851,27.07556 -7.58283,0.32455 -17.19886,0.0485 -21.36896,-0.61347 z m 65.94112,-31.00141 c -3.02718,-3.91659 -2.61437,-4.82598 4.37626,-9.64061 8.37445,-5.7677 16.48754,-14.945802 21.80185,-24.663759 l 3.66644,-6.70462 1.77003,3.307336 c 1.56213,2.918869 1.39357,4.034357 -1.43518,9.497052 -3.71425,7.172773 -19.06754,24.147601 -24.90734,27.537941 -3.1214,1.81215 -4.27404,1.9579 -5.27206,0.66666 z m -8.42025,-13.10006 c -0.81855,-1.52948 -1.28965,-2.93224 -1.04691,-3.11726 0.24275,-0.18502 3.14136,-2.17975 6.44136,-4.432718 8.29919,-5.666012 16.33282,-14.271111 21.72714,-23.272686 4.44496,-7.417389 4.59697,-7.527914 6.20949,-4.514902 1.97568,3.691609 0.1072,8.068997 -8.19373,19.196214 -4.7683,6.391767 -19.67416,18.922212 -22.50934,18.922212 -0.62685,0 -1.80945,-1.25139 -2.62801,-2.78086 z m -58.42122,-2.01372 c -1.34391,-2.94955 -1.13757,-4.1815 1.39577,-8.33333 5.18715,-8.501104 17.39969,-20.250019 26.11576,-25.124323 8.60312,-4.811141 19.83804,-8.85988 21.58663,-7.779195 0.53484,0.330551 -0.0959,6.161878 -1.40162,12.958504 -1.30574,6.796627 -2.09633,12.63524 -1.75687,12.974696 0.33945,0.339456 3.93981,-1.012372 8.00079,-3.004062 8.90711,-4.368455 18.91917,-13.468815 24.65896,-22.413495 4.0964,-6.383688 4.28625,-6.501733 6.15823,-3.829101 1.74373,2.489514 1.57494,3.369586 -1.73587,9.051265 -8.07075,13.850156 -28.37497,28.860727 -42.99364,31.784461 -3.85001,0.77 -4.21247,0.54884 -4.21247,-2.57034 0,-1.877057 0.91057,-7.741494 2.02348,-13.032084 1.1129,-5.290588 1.76762,-9.875098 1.45492,-10.187801 -0.31271,-0.312703 -4.01652,1.119756 -8.23071,3.183243 -8.9885,4.401237 -19.9805,14.674748 -25.16328,23.518492 -2.01912,3.44537 -3.81781,6.26432 -3.99708,6.26432 -0.17928,0 -1.03562,-1.55756 -1.903,-3.46125 z m -7.0554,-11.788257 c -1.25003,-2.743515 -0.89575,-4.248732 2.27524,-9.666667 4.63431,-7.918132 15.34721,-19.413393 23.02198,-24.703248 5.51251,-3.799514 5.83944,-3.864198 7.62426,-1.508493 2.75931,3.641883 2.56375,3.98532 -5.05041,8.869773 -8.53387,5.474448 -15.58786,13.129702 -21.10268,22.90142 -2.28353,4.046195 -4.40746,7.356718 -4.71985,7.356718 -0.31238,0 -1.23423,-1.462276 -2.04854,-3.249503 z M 63.84553,80.896578 c -1.13856,-2.498873 -0.88012,-4.218792 1.26608,-8.425694 4.23026,-8.29199 12.94178,-18.58089 21.26019,-25.10972 l 7.62302,-5.983051 2.30625,2.995795 c 3.07112,3.989349 3.06304,4.01376 -2.28097,6.8917 -6.73178,3.6253 -19.77645,17.729545 -23.87123,25.810212 -1.93995,3.828302 -3.82993,6.960549 -4.19997,6.960549 -0.37003,0 -1.31655,-1.412907 -2.10337,-3.139791 z M 57.17489,70.221185 c -1.70685,-3.746125 0.10952,-7.875665 8.96852,-20.390112 17.32378,-24.472 45.67301,-38.05912 79.37295,-38.041599 34.47155,0.01792 63.81675,16.794902 85.23915,48.732166 2.88444,4.300232 5.24444,8.350232 5.24444,9 0,0.649768 -2.85,1.164849 -6.33333,1.144624 -6.25924,-0.03635 -6.39572,-0.131267 -11.66667,-8.114091 -12.20628,-18.486371 -35.33288,-35.443501 -55.51553,-40.705681 -10.93851,-2.851972 -31.00623,-2.836515 -42.98535,0.03311 -13.20344,3.162914 -28.45966,11.566056 -38.13663,21.00571 -8.36945,8.1642 -18.165,21.905166 -19.55032,27.424752 -0.9871,3.932902 -2.8208,3.897758 -4.63723,-0.08888 z"
         id="path1845" />
      <path
         style="fill:#181619;stroke-width:1.33333"
         d="m 80,222.99793 c -17.451253,-8.71788 -12.363813,-46.39646 6.44544,-47.73621 10.187076,-0.7256 17.22744,6.36865 18.49344,18.635 l 0.76753,7.43661 H 92.186537 c -10.955408,0 -13.51987,-0.36872 -13.51987,-1.94392 0,-1.50228 2.34761,-2.03238 10.333333,-2.33333 L 99.333333,196.66667 98.922377,192 c -0.62106,-7.05256 -4.262768,-11.25535 -10.185625,-11.75495 -8.556915,-0.7218 -14.070085,7.01892 -14.070085,19.75495 0,16.28989 9.420157,24.36869 21.951261,18.82559 5.592782,-2.47395 7.382072,-2.4428 7.382072,0.12849 0,1.82136 -10.860328,6.31747 -15.333333,6.34789 -2.2,0.0149 -6.1,-1.02185 -8.666667,-2.30404 z m 41.7314,-0.19922 c -5.94849,-3.73579 -8.72562,-9.88648 -9.44076,-20.90906 -0.49067,-7.56274 -0.0676,-10.67604 2.12429,-15.63109 5.17048,-11.68873 17.25548,-14.90548 25.67906,-6.83517 l 3.79645,3.63721 0.38811,-11.84863 c 0.32893,-10.04168 0.74396,-11.91666 2.72145,-12.29473 2.17103,-0.41507 2.33333,1.83305 2.33333,32.31833 0,31.87554 -0.0724,32.76443 -2.66666,32.76443 C 144.81763,224 144,223.11111 144,221.10092 v -2.89909 l -3.25031,3.05352 c -4.59262,4.31453 -13.45993,5.03413 -19.01829,1.54336 z m 12.78428,-2.94587 c 10.74559,-3.74593 13.15191,-26.90132 3.82975,-36.85284 -3.66238,-3.90963 -11.37368,-4.05796 -15.41121,-0.29643 -3.68579,3.43384 -4.91613,7.92019 -4.9262,17.9631 -0.0125,12.4768 2.59728,16.91337 12.12635,20.61448 0.0739,0.0287 2.04549,-0.61404 4.38131,-1.42831 z m 32.19751,3.02499 c -6.7635,-3.6273 -10.04652,-10.88552 -10.04652,-22.21116 0,-15.74736 7.9485,-26.23252 19.20096,-25.32867 C 186.00035,176.15192 192,183.53919 192,195.20151 v 6.13182 h -13.44444 c -10.16077,0 -13.30976,-0.40706 -12.893,-1.66666 0.36264,-1.09602 4.11028,-1.80104 10.94541,-2.05911 l 10.39396,-0.39243 -0.725,-5.40529 c -1.34762,-10.04727 -10.42053,-15.02927 -17.86913,-9.81207 -6.97771,4.88738 -8.92696,21.30728 -3.72388,31.36891 3.91692,7.57451 13.64941,9.45028 21.7632,4.19449 2.67593,-1.73336 3.28288,-1.75057 4.31625,-0.1224 0.91667,1.44428 -0.29874,2.60352 -5.11378,4.87742 -7.70338,3.6379 -12.91232,3.79241 -18.9364,0.56165 z M 2.6666667,199.90224 c 0,-22.24145 0.1797434,-24.06136 2.3333333,-23.62507 1.4231547,0.28832 2.2920367,1.62672 2.2274653,3.43111 -0.1310533,3.66216 1.5467832,3.82773 3.4149647,0.337 0.771606,-1.44175 3.910658,-3.29664 6.975671,-4.12196 4.540256,-1.22256 6.3677,-1.12151 9.863383,0.54548 2.359848,1.12532 4.687116,3.29527 5.171709,4.82208 0.85049,2.67965 1.005075,2.64329 4.452832,-1.04755 7.555683,-8.08838 20.412468,-6.02508 23.818719,3.82251 0.902631,2.60955 1.623981,12.24715 1.666667,22.26749 C 62.662037,222.91161 62.508437,224 60.098365,224 c -2.396606,0 -2.597161,-1.28339 -3,-19.19761 -0.374082,-16.63542 -0.770694,-19.57163 -2.971682,-22 -3.90905,-4.3129 -10.438648,-3.7345 -14.674824,1.29992 -3.713876,4.41368 -3.681619,4.17517 -3.457466,25.56436 C 36.134759,223.06059 35.973473,224 33.533496,224 c -2.444129,0 -2.6406,-1.17636 -3.072301,-18.39535 C 29.928885,184.37279 28.349803,180 21.214941,180 10.748596,180 8,185.81485 8,207.95717 8,223.11111 7.8522473,224 5.3333333,224 2.7650315,224 2.6666667,223.11111 2.6666667,199.90224 Z M 201.33333,200 c 0,-20.44444 0.2963,-24 2,-24 1.34364,0 2,1.34388 2,4.09493 v 4.09494 l 4.49078,-4.7616 c 4.5809,-4.85718 5.92086,-5.32967 11.14404,-3.92955 2.4661,0.66107 2.73377,1.23355 1.58253,3.38468 -0.76209,1.42397 -2.39776,2.48865 -3.63481,2.36595 -5.26526,-0.52226 -7.10046,0.32244 -9.59715,4.41732 -2.26829,3.72028 -2.64279,6.73838 -2.64707,21.33333 -0.005,16.10945 -0.14468,17 -2.67165,17 -2.56791,0 -2.66667,-0.88889 -2.66667,-24 z m 29.33334,0 c 0,-23.11111 0.0988,-24 2.66666,-24 2.56791,0 2.66667,0.88889 2.66667,24 0,23.11111 -0.0988,24 -2.66667,24 -2.5679,0 -2.66666,-0.88889 -2.66666,-24 z M 88,169.97016 c 0,-2.63505 4.92346,-8.63683 7.085079,-8.63683 2.411844,0 2.403044,0.16967 -0.224742,4.33334 C 92.422429,169.52948 88,172.30367 88,169.97016 Z m 142.81348,-6.45992 c -1.15267,-1.38888 -1.01931,-2.23285 0.55992,-3.54349 2.54841,-2.11499 5.39217,0.11506 4.17883,3.27696 -0.9876,2.57365 -2.74211,2.67233 -4.73875,0.26653 z"
         id="path1843" />
      <path
         style="fill:#000000;stroke:none;stroke-width:0.353553"
         d="m 203.76795,218.95932 c -0.59047,-1.43842 -0.99513,-17.39568 -0.77384,-30.51536 0.19856,-11.77206 0.47334,-14.99824 1.35228,-15.87718 0.48511,-0.48511 0.62042,-0.46079 1.31806,0.23685 0.66677,0.66677 0.79865,1.26215 0.92636,4.18212 l 0.14891,3.40467 4.11037,-4.0694 c 2.2607,-2.23817 4.61954,-4.32405 5.24186,-4.63529 1.43901,-0.71969 3.63928,-0.68911 6.11636,0.085 1.6817,0.52555 1.95988,0.73991 2.05801,1.58591 0.0871,0.75122 -0.21089,1.30257 -1.28423,2.37592 l -1.3977,1.3977 h -2.88138 c -1.61718,0 -3.38054,0.20897 -4.01907,0.47628 -1.38722,0.58074 -3.48676,2.849 -4.53506,4.89948 -1.6582,3.24347 -1.77386,4.32933 -2.10508,19.76337 -0.36152,16.84618 -0.44162,17.40005 -2.54151,17.57382 -1.16794,0.0967 -1.37519,-0.009 -1.73434,-0.88388 z"
         id="path1982"
         transform="translate(-1.4142164,3.8890873)" />
      <path
         style="fill:#000000;stroke-width:0.353553"
         d=""
         id="path2095"
         transform="translate(-1.4142164,3.8890873)" />
      <path
         style="fill:#000000;stroke-width:0.353553"
         d="m 203.99416,219.19316 c -0.8995,-1.45542 -1.0986,-40.38481 -0.22748,-44.47783 0.79513,-3.73594 2.29801,-2.45047 2.66134,2.27632 0.13102,1.70454 0.31251,3.17345 0.40332,3.26426 0.0908,0.0908 2.14662,-1.76321 4.56848,-4.12003 2.42953,-2.36429 4.82245,-4.39031 5.33826,-4.51977 1.28158,-0.32166 5.08047,0.0301 6.26572,0.58021 1.43168,0.66445 1.30047,1.99877 -0.35355,3.59525 -1.31377,1.26807 -1.35705,1.28077 -4.76007,1.39758 l -3.43424,0.11788 -1.74765,1.72195 c -1.97795,1.94886 -3.36606,4.2834 -3.92455,6.60032 -0.2091,0.86747 -0.60575,8.33893 -0.88145,16.60324 -0.30604,9.17383 -0.66061,15.47354 -0.91039,16.17507 -0.35094,0.98564 -0.5772,1.14905 -1.5911,1.14905 -0.65009,0 -1.28308,-0.16358 -1.40664,-0.3635 z"
         id="path2134"
         transform="translate(-1.4142164,3.8890873)" />
      <path
         style="fill:#000000;stroke-width:0.0625"
         d="m 201.40633,219.29688 c 1e-4,-1.05623 0.3495,-23.82558 0.43613,-28.42188 0.25261,-13.40093 0.59159,-16.9407 1.72377,-18 0.1642,-0.15362 0.21899,-0.18153 0.18405,-0.0937 -0.51356,1.29031 -0.74239,3.4322 -0.91143,8.53125 -0.0359,1.08281 -0.0808,6.89063 -0.0998,12.90625 -0.0621,19.65435 0.10674,23.76521 1.03611,25.23037 0.20138,0.31749 0.37799,0.45737 0.74104,0.58695 0.2058,0.0735 0.0335,0.0838 -1.43806,0.0862 l -1.67188,0.003 8e-5,-0.82812 z"
         id="path2173"
         transform="translate(-1.4142164,3.8890873)" />
      <path
         style="fill:#000000;stroke-width:0.0625"
         d="m 166.8895,195.95186 c -0.28432,-0.70099 0.0426,-1.37769 0.82878,-1.71527 0.65951,-0.2832 1.96117,-0.48932 3.87547,-0.61369 0.56719,-0.0368 3.19688,-0.0778 5.84375,-0.091 l 4.8125,-0.0241 -2.8125,0.11703 c -6.95762,0.28951 -10.05527,0.68111 -11.6198,1.46893 -0.55747,0.28072 -0.72969,0.46941 -0.7832,0.8581 l -0.0368,0.2669 z"
         id="path2212"
         transform="translate(-1.4142164,3.8890873)" />
      <path
         style="fill:#000000;stroke-width:0.0625"
         d="m 159.28623,207.66633 c -1.50823,-4.57807 -1.9904,-9.82395 -1.37675,-14.97883 0.25387,-2.13259 0.79938,-4.62434 1.39567,-6.375 0.33283,-0.97716 0.33795,-0.87489 0.0141,0.28125 -0.93791,3.34812 -1.39972,7.82326 -1.23327,11.95079 0.15712,3.89643 0.55789,6.56742 1.42197,9.47699 0.12091,0.40716 0.2062,0.75393 0.18952,0.77061 -0.0167,0.0167 -0.20173,-0.48994 -0.41122,-1.12581 z"
         id="path2251"
         transform="translate(-1.4142164,3.8890873)" />
      <path
         style="fill:#000000;stroke-width:0.0625"
         d="m 164.97206,185.26688 c -0.006,-0.13099 0.48831,-1.32339 0.87434,-2.11063 1.14676,-2.33867 2.55245,-4.04937 4.26994,-5.19646 1.63082,-1.0892 3.59342,-1.78681 5.23926,-1.86231 0.32004,-0.0147 0.49753,-0.0142 0.3944,0.001 -0.90296,0.13345 -1.49446,0.26703 -2.19128,0.49485 -3.55645,1.16279 -6.48916,4.06938 -8.38762,8.3129 -0.10765,0.24063 -0.19722,0.40291 -0.19904,0.36063 z"
         id="path2290"
         transform="translate(-1.4142164,3.8890873)" />
      <path
         style="fill:#000000;stroke-width:0.0625"
         d="m 175.15625,221.20962 c -2.18634,-0.20885 -4.41585,-0.91064 -6.75,-2.12472 -5.53322,-2.87805 -8.76147,-8.05708 -9.87039,-15.8349 -0.41456,-2.90769 -0.53074,-6.48186 -0.31186,-9.59375 0.46325,-6.58598 2.4239,-12.22442 5.651,-16.25111 1.75273,-2.18701 4.12544,-3.97697 6.53125,-4.92714 1.97656,-0.78064 3.80747,-1.08887 6.0625,-1.0206 3.97558,0.12036 7.66286,1.4186 10.46875,3.68587 0.73373,0.59289 1.94871,1.86973 2.55525,2.68537 1.81156,2.43606 2.96369,5.32609 3.53779,8.87432 0.27758,1.71558 0.32116,2.53594 0.35735,6.7269 l 0.0347,4.0236 -9.46131,-0.0357 c -5.20373,-0.0196 -10.08007,-0.0648 -10.83632,-0.10047 -4.45061,-0.20978 -6.03125,-0.56528 -6.03125,-1.35646 0,-0.92818 2.50526,-1.63083 7.09375,-1.98958 1.65911,-0.12971 3.13039,-0.19993 7.90625,-0.37733 2.28594,-0.0849 4.65498,-0.17301 5.26453,-0.19578 1.08435,-0.0405 1.10765,-0.0442 1.07908,-0.17291 -0.0161,-0.0723 -0.18486,-1.31278 -0.3751,-2.75653 -0.19025,-1.44375 -0.40253,-2.94844 -0.47174,-3.34375 -0.52837,-3.01796 -1.82363,-5.68876 -3.73081,-7.69289 -1.58776,-1.66846 -3.56488,-2.78929 -5.74233,-3.25534 -0.9116,-0.19512 -2.83559,-0.20974 -3.80488,-0.0289 -1.61512,0.30128 -3.31407,1.0532 -4.70662,2.08303 -4.87182,3.60289 -7.47094,13.25646 -6.13034,22.76913 0.62273,4.41877 2.20587,8.53443 4.20281,10.926 3.78317,4.53078 10.23094,5.96671 16.45747,3.66512 0.99737,-0.36867 2.53693,-1.14568 3.70793,-1.87138 2.45592,-1.522 2.98669,-1.64262 3.75,-0.8522 0.76136,0.78841 0.98352,1.48697 0.66965,2.10568 -0.41726,0.82252 -1.65197,1.66208 -4.49757,3.0582 -3.50855,1.72136 -6.13093,2.62441 -8.82833,3.04012 -0.79105,0.12191 -3.07676,0.20538 -3.78125,0.13808 z"
         id="path2329"
         transform="translate(-1.4142164,3.8890873)" />
      <path
         style="fill:#000000;stroke-width:0.0625"
         d=""
         id="path2368"
         transform="translate(-1.4142164,3.8890873)" />
      <path
         style="fill:#000000;stroke-width:0.0625"
         d=""
         id="path2407"
         transform="translate(-1.4142164,3.8890873)" />
      <path
         style="fill:#000000;stroke-width:0.0625"
         d=""
         id="path2446"
         transform="translate(-1.4142164,3.8890873)" />
      <path
         style="fill:#000000;stroke-width:0.015625"
         d="m 164.0874,188.04999 c -0.002,-0.0269 0.0891,-0.38815 0.19575,-0.77655 0.56661,-2.06426 1.33859,-3.93233 2.25995,-5.46875 0.65314,-1.08916 1.4105,-2.05267 2.19943,-2.79812 0.54906,-0.51881 1.14955,-0.96746 1.87466,-1.40064 1.52634,-0.91185 3.13971,-1.43619 4.79687,-1.55897 0.27361,-0.0203 1.10963,-0.02 1.42969,4e-4 0.4749,0.0303 0.45684,0.0386 -0.0859,0.0392 -0.39,4.7e-4 -0.6247,0.008 -0.84878,0.0288 -0.17034,0.0155 -0.31316,0.0247 -0.31736,0.0205 -0.004,-0.004 0.035,-0.0126 0.0871,-0.0186 0.0521,-0.006 0.0993,-0.0184 0.10495,-0.0275 0.0115,-0.0185 -0.42073,-0.006 -0.72902,0.0208 -1.67026,0.14641 -3.6555,0.91796 -5.19889,2.02051 -1.39088,0.9936 -2.55488,2.35236 -3.57537,4.17357 -0.16956,0.30261 -0.52179,1.00439 -0.67836,1.35156 -0.3683,0.81664 -0.66938,1.58633 -0.63427,1.62144 0.0202,0.0202 0.0696,-0.0654 0.19855,-0.34391 0.0706,-0.15243 0.13133,-0.27412 0.13504,-0.27041 0.004,0.004 -0.0494,0.13546 -0.11801,0.29278 -0.35077,0.8042 -0.67151,1.68562 -0.92284,2.53604 -0.16656,0.56359 -0.17156,0.57971 -0.17314,0.5578 z"
         id="path2485"
         transform="translate(-1.4142164,3.8890873)" />
      <path
         style="fill:#000000;stroke-width:0.015625"
         d=""
         id="path2524"
         transform="translate(-1.4142164,3.8890873)" />
      <path
         style="fill:#000000;stroke-width:0.015625"
         d="m 158.34288,192.33984 c 0.004,-0.0193 0.0152,-0.1125 0.0245,-0.20703 0.0311,-0.31544 0.15411,-1.26291 0.2182,-1.68081 0.69739,-4.54706 2.15302,-8.5084 4.28851,-11.67075 0.74885,-1.10893 1.44094,-1.94961 2.31574,-2.8129 0.9356,-0.92331 1.88443,-1.6734 2.95863,-2.33897 1.88229,-1.16626 3.97994,-1.88435 6.125,-2.0968 0.58211,-0.0576 0.88171,-0.0706 1.625,-0.07 1.35837,9.5e-4 2.49545,0.11135 3.76562,0.36563 1.60832,0.32197 3.01949,0.80128 4.42188,1.50193 0.4858,0.24271 0.67241,0.34486 1.11508,0.61042 0.43427,0.26052 1.19928,0.77547 1.25909,0.84754 0.0115,0.0139 0.0153,1.31163 0.0126,4.30441 l -0.004,4.2845 -0.0456,-0.10645 c -0.0251,-0.0585 -0.11802,-0.25411 -0.20648,-0.43458 -1.03632,-2.11428 -2.53463,-3.87438 -4.30257,-5.05432 -1.13803,-0.75953 -2.39035,-1.29821 -3.68637,-1.58569 -0.82319,-0.18259 -2.27523,-0.23574 -3.39175,-0.12415 -1.32913,0.13285 -2.99741,0.73477 -4.37803,1.5796 -0.88308,0.54039 -1.57158,1.10429 -2.27617,1.86425 -1.16709,1.25881 -2.22694,3.02012 -3.03689,5.04687 -0.88782,2.22161 -1.5097,4.79587 -1.81087,7.49609 l -0.0353,0.31641 h -2.48167 -2.48168 z"
         id="path2563"
         transform="translate(-1.4142164,3.8890873)" />
      <path
         style="fill:#000000;stroke-width:0.015625"
         d="m 158.34387,192.31641 c 0.005,-0.0322 0.0296,-0.24492 0.0557,-0.47266 0.65979,-5.76997 2.55227,-10.76745 5.45248,-14.39844 0.6691,-0.83769 1.52964,-1.71805 2.35893,-2.41324 2.47914,-2.07828 5.28512,-3.26893 8.30469,-3.5239 0.96386,-0.0814 2.26207,-0.0632 3.34375,0.047 3.06998,0.31251 5.90685,1.33476 8.25,2.97283 0.1289,0.0901 0.26425,0.18796 0.30078,0.21743 l 0.0664,0.0536 -0.001,4.29192 -10e-4,4.29192 -0.0568,-0.125 c -0.1178,-0.25916 -0.41516,-0.8467 -0.55597,-1.0985 -0.92233,-1.6493 -2.12899,-3.04595 -3.5256,-4.08072 -0.82031,-0.60778 -1.87581,-1.17207 -2.82157,-1.50847 -0.45701,-0.16255 -0.99555,-0.31602 -1.38937,-0.39594 -0.7996,-0.16225 -2.20512,-0.20676 -3.26562,-0.1034 -1.31327,0.12799 -2.94271,0.70667 -4.31802,1.53349 -0.85014,0.5111 -1.48694,1.01277 -2.15073,1.69436 -1.90745,1.95857 -3.42021,4.98925 -4.33548,8.68575 -0.32198,1.3004 -0.58274,2.79451 -0.73559,4.21484 l -0.0189,0.17578 h -2.48254 -2.48253 z"
         id="path2602"
         transform="translate(-1.4142164,3.8890873)" />
      <path
         style="fill:#000000;stroke-width:0.015625"
         d=""
         id="path2641"
         transform="translate(-1.4142164,3.8890873)" />
      <path
         style="fill:#000000;stroke-width:0.015625"
         d="m 158.34287,192.32422 c 0.005,-0.0279 0.0193,-0.15273 0.0327,-0.27734 0.4632,-4.30406 1.65737,-8.30728 3.44447,-11.54688 0.76421,-1.38533 1.6719,-2.68571 2.62045,-3.75411 0.2751,-0.30986 1.13398,-1.16405 1.43448,-1.42664 1.47775,-1.29134 2.96269,-2.21521 4.59596,-2.85943 1.72775,-0.68147 3.46748,-1.00693 5.3806,-1.00656 3.4127,6.6e-4 6.65296,0.86244 9.35662,2.4885 0.32219,0.19376 0.81729,0.51988 1.08756,0.71634 l 0.18016,0.13096 -6.7e-4,4.29688 c -6.1e-4,3.97747 -0.003,4.29281 -0.026,4.24219 -0.13721,-0.29573 -0.41631,-0.85498 -0.53026,-1.0625 -1.64632,-2.99828 -4.13127,-5.07171 -7.08576,-5.91233 -0.32981,-0.0938 -0.63399,-0.16733 -0.84127,-0.20325 -0.79381,-0.13758 -2.07806,-0.17424 -3.04659,-0.087 -1.44006,0.12977 -3.20409,0.77375 -4.66582,1.70332 -0.29184,0.1856 -0.48525,0.32257 -0.49636,0.35152 -0.0145,0.0379 -0.0117,0.0696 0.006,0.0696 0.009,0 0.10543,-0.0625 0.21484,-0.13877 0.73103,-0.51 1.69694,-1.01066 2.57392,-1.33412 0.96269,-0.35508 1.84448,-0.55185 2.71094,-0.60492 0.41307,-0.0253 0.42087,-0.0176 0.0469,0.0463 -0.80784,0.13813 -1.43611,0.30094 -2.125,0.55068 -1.41691,0.51366 -2.69907,1.28706 -3.92856,2.36971 -0.30085,0.26493 -0.95258,0.92168 -1.23436,1.24388 -1.08572,1.24149 -2.01737,2.70123 -2.78138,4.358 -0.1806,0.39163 -0.27265,0.57202 -0.27367,0.53628 -0.002,-0.0609 0.22997,-0.65465 0.46478,-1.19115 0.19783,-0.45202 0.26945,-0.60407 0.50411,-1.07031 0.99085,-1.96874 2.16393,-3.4643 3.58479,-4.57025 0.0858,-0.0668 0.1568,-0.12929 0.15777,-0.13888 0.004,-0.0404 0.008,-0.0438 0.0275,-0.0273 0.0268,0.0223 0.0404,0.009 0.0302,-0.0301 -0.0102,-0.0389 -0.03,-0.0386 -0.0511,7.5e-4 -0.009,0.0171 -0.0225,0.0294 -0.0296,0.0273 -0.007,-0.002 -0.0473,0.0208 -0.0894,0.0509 -0.0421,0.0301 -0.0822,0.0527 -0.0892,0.0504 -0.0157,-0.005 -0.27024,0.19886 -0.51065,0.40943 -2.4297,2.12814 -4.30832,5.93463 -5.23277,10.6027 -0.18312,0.92467 -0.31925,1.80863 -0.43251,2.80859 l -0.027,0.23828 h -2.4827 -2.4827 z"
         id="path2680"
         transform="translate(-1.4142164,3.8890873)" />
      <path
         style="fill:#000000;stroke-width:0.015625"
         d="m 158.34197,192.31641 c 0.005,-0.0322 0.0163,-0.12891 0.0256,-0.21485 0.0388,-0.36108 0.1612,-1.29463 0.21913,-1.67182 0.6412,-4.17511 1.93738,-7.88941 3.80824,-10.91277 0.61411,-0.99241 1.26318,-1.8779 1.96524,-2.68103 0.2699,-0.30875 1.15336,-1.1983 1.46015,-1.47021 1.90144,-1.68523 3.97419,-2.8264 6.22657,-3.42807 0.91362,-0.24406 1.74207,-0.37999 2.78125,-0.45634 0.4053,-0.0298 1.77925,-0.0246 2.25781,0.009 1.25516,0.0869 2.25352,0.23808 3.36719,0.50981 2.10853,0.51448 4.01889,1.37406 5.72795,2.57733 l 0.29548,0.20803 -9.7e-4,4.29886 -9.7e-4,4.29886 -0.0333,-0.0703 c -0.32011,-0.67639 -0.59665,-1.19901 -0.86812,-1.64062 -1.74831,-2.84403 -4.22894,-4.71857 -7.19604,-5.43784 -0.56153,-0.13612 -1.13211,-0.19618 -2.02563,-0.21322 -0.73408,-0.014 -1.43998,0.0269 -1.95108,0.11293 -1.3653,0.22994 -2.8816,0.83932 -4.21208,1.69277 -0.1294,0.083 -0.23294,0.15689 -0.23008,0.16417 0.003,0.007 -0.0124,0.0248 -0.034,0.039 -0.0216,0.0142 -0.0543,0.0449 -0.0727,0.0684 -0.0185,0.0234 -0.0413,0.0426 -0.0508,0.0426 -0.009,0 -7e-4,-0.0176 0.0195,-0.0391 0.0202,-0.0215 0.0295,-0.0391 0.0208,-0.0391 -0.0272,0 -0.07,0.058 -0.0648,0.0877 0.003,0.0176 -0.006,0.0306 -0.0242,0.0343 -0.0182,0.004 -0.0252,-4.7e-4 -0.0186,-0.0111 0.006,-0.009 0.003,-0.0171 -0.007,-0.0171 -0.01,0 -0.0139,0.0123 -0.009,0.0273 0.008,0.0285 -0.0609,0.0833 -0.19771,0.15639 -0.0364,0.0194 -0.0852,0.0493 -0.10844,0.0664 -0.0233,0.0171 -0.0514,0.0312 -0.0625,0.0314 -0.027,3.4e-4 -0.39065,0.313 -0.65795,0.56572 -0.36251,0.34273 -0.943,0.98256 -0.92211,1.01637 0.006,0.009 0.003,0.0117 -0.006,0.006 -0.0312,-0.0193 -0.56338,0.6909 -0.88796,1.18491 -1.78624,2.71864 -3.01623,6.44876 -3.5139,10.65642 -0.0305,0.25791 -0.0555,0.47764 -0.0555,0.48828 0,0.0153 -0.51953,0.0194 -2.48575,0.0194 h -2.48575 z m 11.21747,-14.01919 c 0.0404,-0.0256 0.0734,-0.0506 0.0734,-0.0556 0,-0.01 -0.003,-0.008 -0.10852,0.0583 -0.0382,0.0241 -0.0624,0.0438 -0.0538,0.0438 0.009,0 0.0486,-0.0209 0.089,-0.0465 z m -1.75475,1.72241 c 0.0129,-0.005 0.0428,-0.0298 0.0664,-0.0551 0.0529,-0.0565 0.0565,-0.0357 0.004,0.0238 -0.0208,0.0236 -0.0505,0.0424 -0.0659,0.0417 -0.0221,-9.7e-4 -0.0231,-0.003 -0.005,-0.0104 z"
         id="path2719"
         transform="translate(-1.4142164,3.8890873)" />
      <path
         style="fill:#000000;stroke-width:0.0883883"
         d="m 144.72445,178.55194 c -0.45735,-0.42653 -0.46587,-0.4428 -0.23364,-0.44605 0.74231,-0.0104 0.82834,-1.04759 0.95696,-11.53805 0.091,-7.41924 0.13099,-8.40142 0.39584,-9.71521 0.30962,-1.53585 0.85149,-2.00514 2.29526,-1.98785 l 0.61872,0.007 -0.39775,0.11039 c -1.16998,0.3247 -1.6315,0.96784 -1.9956,2.78093 -0.40719,2.02768 -0.53484,4.13379 -0.87875,14.499 -0.12167,3.66682 -0.23587,6.6816 -0.25379,6.69952 -0.0179,0.0179 -0.24618,-0.16662 -0.50725,-0.41009 z"
         id="path2758"
         transform="translate(-1.4142164,3.8890873)" />
      <path
         style="fill:#000000;stroke-width:0.0883883"
         d="m 92.851959,159.73614 c 0,-0.16028 1.911721,-1.91436 2.412276,-2.21336 0.521927,-0.31177 1.452314,-0.59031 2.292775,-0.6864 0.788858,-0.0902 1.071351,0.17211 0.894892,0.83093 l -0.0545,0.20347 -0.2144,-0.20142 c -0.188344,-0.17694 -0.325093,-0.20552 -1.125253,-0.23514 -0.780646,-0.0289 -0.970939,-0.007 -1.331167,0.15221 -0.575659,0.25464 -1.382122,0.84333 -2.194027,1.60156 -0.374329,0.34958 -0.680599,0.59625 -0.680599,0.54815 z"
         id="path2797"
         transform="translate(-1.4142164,3.8890873)" />
      <path
         style="fill:#000000;stroke-width:0.0883883"
         d=""
         id="path2836"
         transform="translate(-1.4142164,3.8890873)" />
      <path
         style="fill:#000000;stroke-width:0.0883883"
         d=""
         id="path2875"
         transform="translate(-1.4142164,3.8890873)" />
      <path
         style="fill:#000000;stroke-width:0.03125"
         d="m 120.17269,186.85103 c -0.003,-0.1469 0.32378,-1.46842 0.51707,-2.09099 0.72341,-2.33008 1.7772,-4.07655 3.43888,-5.69937 1.12221,-1.09595 2.32386,-1.81954 3.88699,-2.3406 0.44925,-0.14975 1.30417,-0.36694 1.54151,-0.39162 0.11566,-0.012 0.0594,0.0102 -0.19776,0.0781 -4.12359,1.08946 -7.13659,4.36291 -8.92065,9.69179 -0.14588,0.43573 -0.2656,0.77442 -0.26604,0.75264 z"
         id="path2914"
         transform="translate(-1.4142164,3.8890873)" />
      <path
         style="fill:#000000;stroke-width:0.03125"
         d="m 142.98438,176.92181 c -1.59268,-1.52761 -2.03434,-1.9378 -2.474,-2.29769 -2.47666,-2.02727 -5.15045,-3.18374 -8.10413,-3.50518 -0.49755,-0.0542 -2.22064,-0.0542 -2.71875,-7e-5 -0.20625,0.0224 -0.55473,0.0691 -0.7744,0.10385 -0.21967,0.0347 -0.41655,0.0573 -0.4375,0.0503 -0.0855,-0.0287 1.10776,-0.23001 1.8369,-0.30992 0.49069,-0.0538 2.06297,-0.0536 2.57813,2.9e-4 3.13994,0.32845 5.97047,1.67581 8.48939,4.04106 0.53258,0.50009 0.98852,0.98645 1.65682,1.76735 0.74562,0.87125 1.06887,1.18485 1.32879,1.28915 0.0503,0.0202 0.0561,0.0294 0.0195,0.0308 -0.0288,0.001 -0.0569,0.0249 -0.0625,0.053 -0.007,0.0342 -0.44699,-0.36807 -1.33822,-1.22291 z"
         id="path2953"
         transform="translate(-1.4142164,3.8890873)" />
      <path
         style="fill:#000000;stroke-width:0.03125"
         d="m 140.1896,179.68118 c -0.0631,-0.0739 -0.26514,-0.27388 -0.44902,-0.44447 -1.52309,-1.41302 -3.52937,-2.45536 -5.59995,-2.90939 -0.41137,-0.0902 -0.30586,-0.0994 0.14685,-0.0127 2.22304,0.42535 4.1084,1.38888 5.41565,2.76773 0.38406,0.40509 0.63638,0.69797 0.61755,0.7168 -0.009,0.009 -0.068,-0.0441 -0.13108,-0.11793 z"
         id="path2992"
         transform="translate(-1.4142164,3.8890873)" />
      <path
         style="fill:#000000;stroke-width:0.03125"
         d="m 131.04688,217.17555 c -0.94794,-0.38485 -2.29566,-0.98406 -2.27032,-1.0094 0.007,-0.007 0.20485,0.0446 0.44073,0.11355 0.50407,0.1474 1.1829,0.2888 1.75146,0.36483 0.50863,0.068 1.68942,0.0768 2.1875,0.0163 0.33875,-0.0412 0.98979,-0.16196 1.20292,-0.22321 0.06,-0.0173 0.13035,-0.0303 0.15625,-0.0289 0.0259,0.001 -0.38886,0.14945 -0.92167,0.32913 -0.99889,0.33686 -1.95873,0.63824 -2.02487,0.63578 -0.0207,-7.7e-4 -0.2556,-0.0899 -0.522,-0.19805 z"
         id="path3031"
         transform="translate(-1.4142164,3.8890873)" />
      <path
         style="fill:#000000;stroke-width:0.03125"
         d="m 115.5541,209.05609 c -1.38112,-3.74341 -2.07942,-8.15507 -2.06658,-13.05609 0.003,-1.16456 0.0379,-1.43275 0.069,-0.53125 0.0236,0.68366 0.12131,2.42269 0.17912,3.1875 0.31676,4.19047 0.88835,7.39224 1.8317,10.26027 0.1121,0.34081 0.19726,0.6262 0.18924,0.63422 -0.008,0.008 -0.0991,-0.21457 -0.20245,-0.49465 z"
         id="path3070"
         transform="translate(-1.4142164,3.8890873)" />
      <path
         style="fill:#000000;stroke-width:0.03125"
         d="m 123.12024,212.05379 c -1.21746,-1.45484 -2.051,-3.07987 -2.63731,-5.14159 -0.16782,-0.5901 -0.43753,-1.76146 -0.43359,-1.88304 0.003,-0.0938 -0.003,-0.1116 0.15463,0.45522 0.6874,2.47199 1.75815,4.83842 2.9456,6.50996 0.10157,0.14298 0.17901,0.26562 0.1721,0.27254 -0.007,0.007 -0.0976,-0.089 -0.20143,-0.21309 z"
         id="path3109"
         transform="translate(-1.4142164,3.8890873)" />
      <path
         style="fill:#000000;stroke-width:0.03125"
         d="m 135.6875,215.9911 c 1.53581,-0.65208 3.41203,-1.99912 4.57883,-3.28738 1.55863,-1.72088 2.75976,-3.88176 3.65679,-6.57872 0.74801,-2.24889 1.20285,-4.6199 1.42677,-7.4375 0.0805,-1.01302 0.0804,-3.95707 -10e-5,-4.96875 -0.11904,-1.49503 -0.30492,-2.89035 -0.53657,-4.02773 -0.076,-0.37292 -0.0934,-0.49731 -0.0659,-0.46967 0.0235,0.0237 0.26555,1.25971 0.3612,1.84476 0.51968,3.17893 0.55856,6.73807 0.10837,9.91827 -0.92996,6.56918 -3.63049,11.69885 -7.39804,14.05262 -0.45751,0.28583 -1.242,0.66854 -1.77734,0.86707 -0.42539,0.15775 -0.65153,0.21334 -0.35403,0.087 z"
         id="path3148"
         transform="translate(-1.4142164,3.8890873)" />
      <path
         style="fill:#000000;stroke-width:0.03125"
         d="m 99.369198,214.32351 c 0.09048,-0.0905 0.865972,-0.53668 1.349552,-0.7765 1.02072,-0.50621 1.75778,-0.71228 2.5625,-0.71645 0.52875,-0.003 0.72356,0.0354 1.09375,0.21433 0.20778,0.10041 0.48614,0.30234 0.34375,0.24937 -0.55993,-0.20831 -0.89969,-0.24331 -1.5194,-0.15655 -0.849,0.11886 -2.23649,0.54828 -3.58646,1.10998 -0.235383,0.0979 -0.279556,0.11169 -0.243692,0.0758 z"
         id="path3187"
         transform="translate(-1.4142164,3.8890873)" />
      <path
         style="fill:#000000;stroke-width:0.03125"
         d="m 106.61559,192.40249 c -0.22834,-2.23957 -0.3242,-3.10423 -0.41359,-3.73061 -0.23187,-1.62461 -0.55263,-3.08732 -1.00249,-4.57144 -0.43054,-1.42036 -1.03919,-2.90261 -1.68335,-4.09944 -0.14062,-0.26127 -0.24901,-0.48169 -0.24088,-0.48982 0.0467,-0.0467 0.96557,1.67593 1.33599,2.50445 1.46365,3.27376 2.16255,6.76427 2.11728,10.57436 l -0.01,0.82435 z"
         id="path3226"
         transform="translate(-1.4142164,3.8890873)" />
      <path
         style="fill:#000000;stroke-width:0.0625"
         d=""
         id="path3265"
         transform="translate(-1.4142164,3.8890873)" />
      <path
         style="fill:#000000;stroke-width:0.03125"
         d="m 90.010895,167.0208 c -0.146082,-0.041 -0.324898,-0.13909 -0.299654,-0.16433 0.0074,-0.007 0.06446,0.008 0.126707,0.0337 0.06653,0.0278 0.208735,0.0473 0.345053,0.0473 0.691321,0 1.780197,-0.57372 2.973249,-1.56657 0.687684,-0.57229 1.709656,-1.63858 2.294929,-2.39445 0.10983,-0.14185 0.206167,-0.25143 0.214082,-0.24351 0.03753,0.0375 -0.655033,0.9409 -1.153389,1.50447 -1.581708,1.78868 -3.599552,3.0365 -4.500977,2.78336 z"
         id="path3304"
         transform="translate(-1.4142164,3.8890873)" />
      <path
         style="fill:#000000;stroke-width:0.03125"
         d="m 90.640625,162.79861 c 0,-0.0376 0.293272,-0.51845 0.610999,-1.00173 0.606298,-0.92222 1.507716,-2.0817 1.600293,-2.05844 0.0325,0.008 0.122772,-0.0428 0.224678,-0.12694 0.09369,-0.0773 0.176607,-0.13434 0.184261,-0.12669 0.0077,0.008 -0.125252,0.15867 -0.295345,0.33559 -0.637201,0.66276 -1.41482,1.64361 -1.988128,2.50773 -0.33356,0.50275 -0.336758,0.50722 -0.336758,0.47048 z"
         id="path3343"
         transform="translate(-1.4142164,3.8890873)" />
      <path
         style="fill:#000000;stroke-width:0.03125"
         d="m 99.421875,174.85379 c -0.740582,-0.64651 -1.903829,-1.41458 -2.890625,-1.90862 -0.835006,-0.41804 -2.030463,-0.86581 -2.984375,-1.11781 -0.518045,-0.13686 -0.319599,-0.123 0.453125,0.0317 2.068154,0.41391 3.641869,1.27861 5.5625,3.05637 0.237684,0.22 0.125828,0.171 -0.140625,-0.0616 z"
         id="path3382"
         transform="translate(-1.4142164,3.8890873)" />
      <path
         style="fill:#000000;stroke-width:0.03125"
         d="m 79.9375,174.44895 c 0.244823,-0.2225 0.913501,-0.755 1.253433,-0.99817 1.259546,-0.90102 2.448221,-1.41468 3.863501,-1.66952 0.48637,-0.0876 0.504834,-0.0755 0.07057,0.0463 -0.910049,0.25513 -1.710399,0.56844 -2.59375,1.01538 -0.878713,0.44459 -1.809764,1.03631 -2.49052,1.58283 -0.254479,0.2043 -0.318279,0.21865 -0.10323,0.0232 z"
         id="path3421"
         transform="translate(-1.4142164,3.8890873)" />
      <path
         style="fill:#000000;stroke-width:0.03125"
         d="m 71.221908,191 c 0.02562,-0.3435 0.227207,-1.60408 0.372311,-2.32812 0.894642,-4.46412 2.622729,-8.11974 5.3105,-11.2339 0.369286,-0.42787 0.709947,-0.78685 0.728798,-0.768 0.0082,0.008 -0.076,0.11751 -0.187216,0.24282 -0.440825,0.49668 -1.13256,1.40811 -1.607808,2.11845 -2.070099,3.09414 -3.59251,6.93125 -4.432542,11.17188 -0.09193,0.46406 -0.174351,0.8789 -0.183165,0.92187 -0.0088,0.043 -0.0092,-0.0133 -8.78e-4,-0.125 z"
         id="path3460"
         transform="translate(-1.4142164,3.8890873)" />
      <path
         style="fill:#000000;stroke-width:0.03125"
         d="m 76.190148,198.82031 c -0.08266,-0.90245 -0.109029,-3.4054 -0.04897,-4.64843 0.381449,-7.89496 2.972325,-13.68116 7.307161,-16.31908 0.517814,-0.31511 1.571923,-0.82306 1.703734,-0.82099 0.01949,3e-4 -0.177777,0.11158 -0.438362,0.24728 -1.86096,0.9691 -3.589833,2.49541 -5.053509,4.46143 -1.119414,1.5036 -2.006025,3.78087 -2.609327,6.70206 -0.575078,2.78454 -0.854727,6.14543 -0.758652,9.11767 0.02032,0.62858 0.0457,1.2167 0.0564,1.30694 0.01897,0.15993 0.01746,0.16406 -0.05985,0.16406 -0.07517,0 -0.08031,-0.011 -0.09863,-0.21094 z"
         id="path3499"
         transform="translate(-1.4142164,3.8890873)" />
      <path
         style="fill:#000000;stroke-width:0.03125"
         d="m 100.44335,189.95313 c -0.1475,-1.38307 -0.28208,-2.32826 -0.44719,-3.14063 -0.755076,-3.71513 -2.54609,-6.86393 -4.948867,-8.70065 -0.316697,-0.24208 -0.789833,-0.56654 -1.008352,-0.69148 -0.07298,-0.0417 -0.112768,-0.076 -0.08842,-0.0762 0.06333,-5.4e-4 0.766276,0.37399 1.118902,0.59614 2.863057,1.80374 4.662761,5.09917 5.178107,9.48161 0.0728,0.61878 0.27229,2.89242 0.26176,2.9828 -0.005,0.0438 -0.0348,-0.15937 -0.0659,-0.45155 z"
         id="path3538"
         transform="translate(-1.4142164,3.8890873)" />
      <path
         style="fill:#000000;stroke-width:0.03125"
         d="m 89.625,216.63464 c -2.432603,-0.16114 -4.755321,-1.01464 -6.62869,-2.43577 -0.685623,-0.52011 -1.61288,-1.39796 -2.141064,-2.02699 -2.390678,-2.84713 -3.909173,-6.74801 -4.494849,-11.54688 -0.05102,-0.41807 -0.15662,-1.47327 -0.157145,-1.57031 -7e-5,-0.0129 0.03503,-0.0234 0.078,-0.0234 0.04716,0 0.07813,0.0178 0.07813,0.045 0,0.12677 0.103476,1.25818 0.158793,1.73626 0.334063,2.8871 0.941471,5.15984 1.916743,7.17188 0.375755,0.7752 0.623735,1.20765 1.128923,1.96875 1.499059,2.25841 3.515807,4.04482 5.873666,5.20284 1.708952,0.83931 3.453725,1.30777 5.358167,1.43863 0.265742,0.0182 0.48957,0.0396 0.497396,0.0474 0.0156,0.0156 -1.41672,0.009 -1.668063,-0.007 z"
         id="path3577"
         transform="translate(-1.4142164,3.8890873)" />
      <path
         style="fill:#000000;stroke-width:0.03125"
         d="m 88.640625,221.40365 c -2.238018,-0.17018 -5.163896,-1.00489 -7.28125,-2.07723 -0.619002,-0.31349 -1.009029,-0.54569 -1.796875,-1.06976 -1.769578,-1.1771 -3.173317,-2.43634 -4.309673,-3.86603 -0.334145,-0.42041 -0.968509,-1.36799 -1.255222,-1.875 -0.633297,-1.1199 -1.192097,-2.47588 -1.622645,-3.9375 -0.1632,-0.55404 -0.422307,-1.59155 -0.420721,-1.68465 6.12e-4,-0.036 0.12503,0.3073 0.276483,0.76277 0.974601,2.93093 2.281415,5.33282 4.029578,7.40625 0.429206,0.50907 1.479165,1.55605 1.972341,1.96675 1.776413,1.47934 3.587456,2.44815 6.126734,3.27746 1.8948,0.61882 3.887447,1.04118 5.234375,1.10947 0.103125,0.005 0.0047,0.0102 -0.21875,0.011 -0.223437,8.1e-4 -0.553906,-0.01 -0.734375,-0.0235 z"
         id="path3616"
         transform="translate(-1.4142164,3.8890873)" />
      <path
         style="fill:#000000;stroke-width:0.03125"
         d="m 92.921875,159.66431 c 0,-0.042 0.966689,-0.98384 1.375,-1.33973 0.488864,-0.4261 0.843421,-0.70975 1.005379,-0.80431 0.36767,-0.21467 1.057643,-0.44828 1.737569,-0.58829 0.46672,-0.0961 1.068352,-0.10054 1.225802,-0.009 0.199545,0.11596 0.264211,0.36158 0.183252,0.69603 -0.01953,0.0807 -0.04594,0.1583 -0.0587,0.17254 -0.01276,0.0142 -0.09502,-0.0379 -0.182802,-0.11586 -0.194619,-0.17285 -0.296044,-0.20215 -0.826411,-0.23875 -0.599342,-0.0414 -1.038222,-0.0359 -1.287214,0.0161 -0.565058,0.1179 -1.395547,0.66727 -2.488269,1.64599 -0.576989,0.51679 -0.683606,0.60496 -0.683606,0.56534 z"
         id="path3655"
         transform="translate(-1.4142164,3.8890873)" />
      <path
         style="fill:#000000;stroke-width:0.03125"
         d="m 98.28901,158.00781 c -0.0087,-0.0816 -0.02736,-0.17644 -0.04146,-0.21066 -0.0226,-0.0548 -0.01435,-0.053 0.06934,0.0156 0.09459,0.0775 0.0948,0.0784 0.05017,0.21067 -0.02464,0.073 -0.04873,0.13281 -0.05352,0.13281 -0.0048,0 -0.01583,-0.0668 -0.02453,-0.14844 z"
         id="path3694"
         transform="translate(-1.4142164,3.8890873)" />
      <path
         style="fill:#000000;stroke-width:0.03125"
         d="m 98.296875,157.98878 c 0,-0.0426 -0.0094,-0.10318 -0.02092,-0.13466 -0.0202,-0.0553 -0.01869,-0.0553 0.04348,-7.8e-4 0.0399,0.035 0.05832,0.0798 0.0484,0.11767 -0.02441,0.0933 -0.07096,0.10501 -0.07096,0.0178 z"
         id="path3733"
         transform="translate(-1.4142164,3.8890873)" />
      <path
         style="fill:#000000;stroke-width:0.03125"
         d="m 92.921875,159.6635 c 0,-0.0922 1.651295,-1.61521 2.165376,-1.99722 0.33365,-0.24794 0.872012,-0.47226 1.516255,-0.63177 0.5879,-0.14557 0.780639,-0.17415 1.177744,-0.17466 0.320957,-4.1e-4 0.390763,0.009 0.484375,0.0631 0.199545,0.11596 0.264211,0.36158 0.183252,0.69603 -0.01953,0.0807 -0.0456,0.15797 -0.05795,0.1718 -0.01235,0.0138 -0.09762,-0.039 -0.189494,-0.11745 -0.09187,-0.0784 -0.216966,-0.15671 -0.277985,-0.17399 -0.175462,-0.0497 -1.077165,-0.10168 -1.454727,-0.0839 -0.232506,0.0109 -0.40952,0.0381 -0.546875,0.0839 -0.560767,0.18704 -1.387769,0.76161 -2.359342,1.63918 -0.47816,0.4319 -0.640625,0.56504 -0.640625,0.52499 z"
         id="path3811"
         transform="translate(-1.4142164,3.8890873)" />
      <path
         style="fill:#000000;stroke-width:0.03125"
         d="m 93.953125,158.52239 c 0.341883,-0.33265 0.987143,-0.86691 1.044833,-0.86509 0.01831,5.7e-4 -0.02269,0.0463 -0.09111,0.10156 -0.246557,0.19921 -0.631371,0.53383 -0.927731,0.8067 -0.166173,0.15301 -0.313829,0.27772 -0.328125,0.27714 -0.0143,-5.7e-4 0.121664,-0.14471 0.302133,-0.32031 z"
         id="path3850"
         transform="translate(-1.4142164,3.8890873)" />
      <path
         style="fill:#000000;stroke-width:0.00390625"
         d="m 92.916016,159.88128 c 0,-0.003 0.03312,-0.0406 0.0736,-0.0832 0.184941,-0.19442 0.280456,-0.30496 0.27136,-0.31405 -0.0083,-0.008 -0.07083,0.0349 -0.216057,0.149 -0.04315,0.0339 -0.112444,0.08 -0.115544,0.077 -8.19e-4,-8.2e-4 0.0244,-0.0209 0.05605,-0.0447 0.117632,-0.0883 0.296588,-0.24275 0.512422,-0.44225 0.166572,-0.15397 0.202923,-0.18709 0.306836,-0.27954 0.821509,-0.73089 1.593132,-1.25267 2.116722,-1.43136 0.258304,-0.0881 0.481743,-0.10144 1.221169,-0.0726 0.639831,0.0249 0.815086,0.056 0.968151,0.17187 0.02987,0.0226 0.14568,0.12828 0.273001,0.24913 0.007,0.007 0.01344,0.0112 0.01443,0.0102 0.0036,-0.004 0.06817,-0.2499 0.07792,-0.29721 0.05848,-0.2838 0.02408,-0.47867 -0.106172,-0.60154 -0.135682,-0.128 -0.373492,-0.17559 -0.727328,-0.14555 -0.217395,0.0185 -0.517557,0.0666 -0.803146,0.12876 -0.677322,0.14747 -1.334936,0.39391 -1.665604,0.62418 -0.519031,0.36143 -1.847675,1.56369 -2.243164,2.02978 l -0.01465,0.0173 v -0.0271 -0.0271 l 0.05144,-0.0585 c 0.400839,-0.45606 0.839102,-0.90197 1.225906,-1.24729 0.637243,-0.56889 1.217605,-0.95022 1.69336,-1.11263 0.08345,-0.0285 0.157064,-0.0485 0.425781,-0.1158 0.796507,-0.19946 1.275388,-0.27991 1.613281,-0.27103 0.248871,0.007 0.408174,0.0564 0.512175,0.16043 0.08687,0.0869 0.124024,0.19422 0.123848,0.35788 -1.45e-4,0.13428 -0.02534,0.27526 -0.08346,0.46699 -0.05991,0.19764 -0.186734,0.51112 -0.302542,0.74785 -0.02656,0.0543 -0.02576,0.0499 0.0078,-0.043 0.06167,-0.17049 0.09015,-0.29921 0.09504,-0.42969 l 0.0026,-0.0684 0.0091,0.0742 c 0.01116,0.0915 0.01696,0.1211 0.02373,0.1211 0.0065,0 0.02925,-0.0546 0.05752,-0.13799 0.01662,-0.049 0.02251,-0.0724 0.02385,-0.0944 0.0017,-0.0277 0.0011,-0.0303 -0.01042,-0.0475 -0.0069,-0.0103 -0.03386,-0.0359 -0.06187,-0.0588 -0.05887,-0.0481 -0.07223,-0.0577 -0.08055,-0.0577 -0.0089,0 -0.0078,0.009 0.0055,0.0482 0.0064,0.0189 0.01166,0.0383 0.01158,0.0429 -7.9e-5,0.005 -0.0036,-0.001 -0.0078,-0.013 -0.07227,-0.20278 -0.294682,-0.31271 -0.726435,-0.35907 -0.183028,-0.0196 -0.328501,-0.0263 -0.707854,-0.0321 -0.327543,-0.005 -0.40309,-0.003 -0.508943,0.0124 -0.454267,0.0671 -1.004507,0.34322 -1.654297,0.83022 -0.538897,0.40388 -1.076038,0.89669 -1.704102,1.56346 -0.0188,0.0199 -0.03418,0.0336 -0.03418,0.0304 z m 0.764218,-1.05439 c 0.05769,-0.0425 0.153129,-0.12543 0.333438,-0.28981 0.304459,-0.27756 0.583621,-0.52043 0.867187,-0.75446 0.09909,-0.0818 0.134636,-0.11901 0.119239,-0.12492 -0.0087,-0.003 -0.02615,0.005 -0.06437,0.03 -0.150676,0.0992 -0.547929,0.42936 -0.847835,0.70457 -0.142271,0.13055 -0.411138,0.40263 -0.434954,0.44015 -0.01079,0.017 -4.06e-4,0.0149 0.0273,-0.005 z"
         id="path3928"
         transform="translate(-1.4142164,3.8890873)" />
      <path
         style="fill:#000000;stroke-width:0.0441942"
         d="m 9.3392623,178.55425 c -0.2369086,-0.15624 -0.4235454,-0.48068 -0.5395257,-0.93787 -0.0939,-0.37015 -0.1759268,-1.35891 -0.141442,-1.70495 0.034615,-0.34736 -0.039296,-1.05635 -0.1537166,-1.47453 -0.1424394,-0.52058 -0.4124914,-0.99456 -0.7695371,-1.35065 -0.4604744,-0.45924 -0.9673575,-0.69532 -1.6499534,-0.76848 l -0.2956507,-0.0317 0.265165,-0.0584 c 0.3563641,-0.0785 1.409791,-0.0397 1.7456699,0.0642 0.5756344,0.17808 0.9278749,0.45659 1.1801797,0.93312 0.3085012,0.58268 0.4006663,1.17234 0.4553125,2.913 0.04477,1.42608 0.091029,1.89554 0.2109243,2.14055 0.1800504,0.36793 0.4593218,0.14791 1.0553448,-0.83146 0.443477,-0.72871 0.784476,-1.16407 1.34684,-1.71953 1.642843,-1.62267 4.327656,-3.18931 7.04301,-4.10973 2.181385,-0.73942 3.95767,-0.89781 5.833631,-0.52017 0.783637,0.15775 2.276876,0.6105 2.215602,0.67177 -0.01099,0.011 -0.215681,-0.0427 -0.454877,-0.11937 -1.015017,-0.32524 -1.756776,-0.43995 -2.852267,-0.44108 -1.104692,-0.001 -2.131584,0.14477 -3.725623,0.52938 -1.796197,0.43338 -2.897691,0.8194 -4.286835,1.50234 -1.009612,0.49634 -1.804524,0.98015 -2.48176,1.51047 -0.637429,0.49915 -1.041181,0.94498 -1.359922,1.50167 -0.89672,1.56613 -1.686394,2.3805 -2.3074941,2.37966 -0.1306978,-1.8e-4 -0.2610949,-0.0308 -0.3330756,-0.0783 z"
         id="path3967"
         transform="translate(-1.4142164,3.8890873)" />
      <path
         style="fill:#000000;stroke-width:0.0441942"
         d="m 37.676771,177.16045 c -0.0034,-0.0998 0.751618,-0.99315 1.24336,-1.47116 2.430529,-2.36266 6.300382,-4.33183 9.370686,-4.76827 1.304115,-0.18537 2.929912,-0.0128 4.448257,0.47219 0.81646,0.26079 2.252955,0.85384 2.198967,0.90782 -0.01113,0.0111 -0.19158,-0.0429 -0.400999,-0.12 -0.893169,-0.32898 -1.902078,-0.57253 -3.05083,-0.73649 -0.678132,-0.0968 -2.641496,-0.10983 -3.358757,-0.0223 -2.501629,0.30522 -4.747367,1.13334 -6.783805,2.50153 -1.07742,0.72387 -1.848618,1.38348 -2.920143,2.49763 -0.410023,0.42634 -0.746054,0.75892 -0.746736,0.73907 z"
         id="path4006"
         transform="translate(-1.4142164,3.8890873)" />
      <path
         style="fill:#000000;stroke-width:0.0441942"
         d="m 11.295188,183.94856 c -0.0047,-0.0711 0.43088,-1.26168 0.631751,-1.72661 1.419875,-3.28639 3.649523,-5.11115 7.057105,-5.77558 0.699347,-0.13636 0.904362,-0.13879 0.395101,-0.005 -2.924128,0.77002 -5.324755,2.63391 -7.021886,5.45192 -0.262703,0.43621 -0.767916,1.42499 -0.964601,1.88787 -0.05164,0.12154 -0.0955,0.19673 -0.09747,0.16709 z"
         id="path4045"
         transform="translate(-1.4142164,3.8890873)" />
      <path
         style="fill:#000000;stroke-width:0.0441942"
         d="m 34.790789,179.04101 c -0.120937,-0.12623 -0.399608,-0.6883 -0.454698,-0.91711 -0.01746,-0.0725 -0.02195,-0.12192 -0.01,-0.10977 0.04887,0.0496 0.611803,1.11717 0.596934,1.13204 -0.0088,0.009 -0.06836,-0.0385 -0.132254,-0.10516 z"
         id="path4084"
         transform="translate(-1.4142164,3.8890873)" />
      <path
         style="fill:#000000;stroke-width:0.00552427"
         d="m 64.006931,202.15934 c -5.5e-5,-0.22959 -0.0092,-1.1917 -0.0165,-1.72771 -0.02301,-1.70015 -0.06455,-3.40537 -0.121647,-4.99394 -0.01739,-0.48381 -0.05332,-1.40435 -0.05688,-1.45703 l -0.002,-0.029 h 0.08138 0.08138 l 0.0034,0.0677 c 0.0042,0.0839 0.02381,0.85283 0.03633,1.42388 0.03792,1.7286 0.05728,3.44157 0.06441,5.69967 l 0.0038,1.19462 h -0.03681 -0.03681 l -4.3e-5,-0.17816 z"
         id="path4123"
         transform="translate(-1.4142164,3.8890873)" />
      <path
         style="fill:#000000;stroke-width:0.0220971"
         d="m 63.81753,193.91851 c -0.0047,-0.0152 -0.01444,-0.19666 -0.02167,-0.40327 -0.03291,-0.94003 -0.155145,-3.08383 -0.256406,-4.49676 -0.272891,-3.80774 -0.630669,-6.70626 -1.018739,-8.25326 -0.133308,-0.53142 -0.401709,-1.26223 -0.692343,-1.88513 -0.06981,-0.14962 -0.121506,-0.27745 -0.11488,-0.28408 0.01473,-0.0147 0.259425,0.4709 0.397121,0.78814 0.948092,2.18438 1.506645,6.04725 1.771703,12.25284 0.04336,1.01518 0.0777,1.96875 0.0777,2.15771 v 0.15143 h -0.06698 c -0.03684,0 -0.07082,-0.0124 -0.0755,-0.0276 z"
         id="path4162"
         transform="translate(-1.4142164,3.8890873)" />
      <path
         style="fill:#000000;stroke-width:0.0110485"
         d="m 64.012897,204.31519 c 8.2e-5,-0.0304 0.0022,-0.0415 0.0048,-0.0247 0.0025,0.0168 0.0025,0.0417 -1.51e-4,0.0553 -0.0026,0.0136 -0.0047,-1.6e-4 -0.0046,-0.0305 z"
         id="path4201"
         transform="translate(-1.4142164,3.8890873)" />
      <path
         style="fill:#000000;stroke-width:0.0110485"
         d=""
         id="path4240"
         transform="translate(-1.4142164,3.8890873)" />
      <path
         style="fill:#000000;stroke-width:0.0110485"
         d="m 63.949803,213.96057 c 0.0026,-0.13369 0.0097,-0.42703 0.01572,-0.65187 0.04534,-1.69288 0.05876,-3.6124 0.05286,-7.55996 l -0.0051,-3.40572 h 0.03137 0.03137 l -1.75e-4,1.4888 c -5.37e-4,4.59232 -0.04912,8.65957 -0.121593,10.17847 l -0.0092,0.19335 z"
         id="path4279"
         transform="translate(-1.4142164,3.8890873)" />
      <path
         style="fill:#000000;stroke-width:0.0625"
         d="m 233.54046,161.31264 c -0.47165,-0.16967 -0.87304,-0.44286 -1.28452,-0.87425 -0.40355,-0.42307 -0.6222,-0.85447 -0.72442,-1.42925 -0.0808,-0.45461 -0.048,-0.55538 0.0815,-0.25027 0.049,0.11543 0.21558,0.38054 0.37015,0.58912 0.72957,0.98449 1.56518,1.67679 2.34446,1.94235 l 0.42235,0.14393 -0.4375,-6.4e-4 c -0.27288,-4e-4 -0.56338,-0.0459 -0.77204,-0.12099 z"
         id="path4318"
         transform="translate(-1.4142164,3.8890873)" />
      <path
         style="fill:#000000;stroke-width:0.0625"
         d="m 212.72136,179.15107 c 0.15325,-0.15753 0.49669,-0.4516 0.7632,-0.65349 1.26099,-0.95523 2.73249,-1.30831 5.09401,-1.22229 1.56466,0.057 1.67242,0.13249 0.26034,0.18237 -1.76631,0.0624 -2.65237,0.19758 -3.80513,0.58049 -0.79127,0.26283 -1.62955,0.69538 -2.13146,1.09983 -0.20444,0.16474 -0.39148,0.29952 -0.41565,0.29952 -0.0242,0 0.0814,-0.12889 0.23469,-0.28643 z"
         id="path4357"
         transform="translate(-1.4142164,3.8890873)" />
      <path
         style="fill:#000000;stroke-width:0.0625"
         d="m 208.35493,192.46875 c -0.015,-0.66748 0.16404,-3.53382 0.27132,-4.34375 0.26765,-2.02059 0.76215,-3.77349 1.405,-4.98037 0.23035,-0.43246 0.21352,-0.34466 -0.1161,0.60537 -0.71836,2.0705 -1.16242,4.65738 -1.52883,8.90625 -0.0122,0.14157 -0.0258,0.0602 -0.0314,-0.1875 z"
         id="path4396"
         transform="translate(-1.4142164,3.8890873)" />
    </g>
  </g>
</svg>
