<?xml version="1.0" standalone="no"?>
<!DOCTYPE svg PUBLIC "-//W3C//DTD SVG 20010904//EN"
 "http://www.w3.org/TR/2001/REC-SVG-20010904/DTD/svg10.dtd">
<svg version="1.0" xmlns="http://www.w3.org/2000/svg"
 width="180.000000pt" height="180.000000pt" viewBox="0 0 180.000000 180.000000"
 preserveAspectRatio="xMidYMid meet">

<g transform="translate(0.000000,180.000000) scale(0.100000,-0.100000)"
fill="#000000" stroke="none">
<path d="M970 1704 c-165 -32 -285 -90 -390 -190 -104 -100 -176 -227 -141
-248 5 -4 26 23 46 59 75 134 201 242 349 298 76 29 89 31 221 31 130 0 145
-2 215 -28 143 -54 300 -180 376 -300 28 -44 31 -46 77 -46 l48 0 -51 75
c-105 151 -260 271 -417 322 -62 20 -102 26 -193 29 -63 1 -126 0 -140 -2z"/>
<path d="M664 1452 c-56 -41 -134 -130 -166 -189 -24 -42 -26 -52 -14 -68 11
-16 16 -12 45 40 39 70 117 154 166 181 37 20 43 35 21 53 -10 8 -22 4 -52
-17z"/>
<path d="M721 1369 c-52 -31 -133 -118 -168 -178 -26 -45 -29 -58 -20 -78 10
-22 12 -21 41 32 36 65 122 156 177 187 32 18 36 24 28 40 -12 23 -16 23 -58
-3z"/>
<path d="M1161 1313 c-25 -36 -67 -82 -95 -103 -56 -42 -135 -84 -143 -77 -5
5 14 146 24 181 4 16 1 17 -29 11 -70 -14 -180 -76 -242 -139 -75 -76 -104
-125 -90 -157 10 -21 12 -19 42 29 36 55 108 126 162 159 40 25 90 39 90 27 0
-12 -19 -131 -26 -166 l-5 -27 53 15 c79 24 145 62 214 126 72 68 113 136 98
166 -8 18 -14 14 -53 -45z"/>
<path d="M1232 1246 c-34 -64 -117 -153 -172 -184 -45 -26 -47 -29 -36 -50
l12 -22 47 30 c100 67 210 218 184 254 -10 14 -15 11 -35 -28z"/>
<path d="M1271 1149 c-33 -56 -128 -156 -180 -190 -21 -13 -22 -18 -12 -37 12
-22 12 -22 71 23 64 49 102 93 149 173 26 45 29 56 19 71 -12 16 -16 12 -47
-40z"/>
<path d="M1321 1074 c-118 -223 -329 -348 -586 -346 -117 0 -211 26 -322 87
-76 43 -235 195 -268 258 -18 35 -22 37 -68 37 l-49 0 17 -27 c51 -79 71 -104
137 -171 156 -160 320 -232 527 -232 160 0 297 37 412 112 131 84 267 264 243
319 -10 22 -12 20 -43 -37z"/>
<path d="M1087 603 c-4 -3 -7 -45 -7 -92 l0 -85 -31 30 c-24 23 -39 29 -73 29
-91 0 -142 -76 -134 -199 6 -83 26 -129 71 -157 42 -26 108 -21 143 12 l24 22
0 -21 c0 -15 6 -22 20 -22 19 0 20 7 20 245 0 198 -3 245 -13 245 -8 0 -17 -3
-20 -7z m-49 -175 c69 -74 51 -249 -28 -276 -42 -15 -86 2 -106 40 -36 69 -26
197 18 238 30 28 88 27 116 -2z"/>
<path d="M1731 596 c-9 -10 -8 -16 4 -26 19 -16 41 1 32 24 -8 20 -21 20 -36
2z"/>
<path d="M676 559 c-10 -17 -15 -33 -12 -36 10 -10 31 5 49 36 18 30 18 31 0
31 -10 0 -27 -14 -37 -31z"/>
<path d="M123 479 c-18 -5 -37 -18 -43 -29 -14 -27 -27 -25 -26 2 1 14 -6 24
-17 26 -16 3 -17 -10 -17 -177 0 -174 1 -181 20 -181 19 0 20 7 20 120 0 166
21 210 99 210 54 0 65 -33 69 -192 4 -129 5 -138 24 -138 18 0 19 7 18 108 -2
160 -2 158 26 191 32 38 81 42 110 10 16 -18 19 -40 22 -165 3 -137 4 -144 24
-144 19 0 20 5 16 148 -3 162 -12 189 -67 212 -40 16 -104 -2 -129 -37 -19
-27 -20 -27 -26 -5 -7 22 -54 53 -78 51 -7 0 -28 -5 -45 -10z"/>
<path d="M615 481 c-56 -24 -95 -102 -95 -188 1 -143 96 -217 214 -165 43 20
54 31 40 44 -3 4 -25 -3 -49 -13 -94 -42 -165 19 -165 141 0 96 41 154 106
148 44 -4 71 -35 76 -88 l3 -35 -77 -3 c-60 -2 -78 -6 -78 -17 0 -12 19 -15
101 -15 l102 0 -6 56 c-6 61 -24 95 -62 120 -30 19 -82 26 -110 15z"/>
<path d="M1250 469 c-20 -13 -41 -40 -57 -75 -59 -130 7 -284 122 -284 16 0
51 10 77 23 36 17 46 25 39 36 -8 12 -13 12 -33 -1 -60 -39 -133 -25 -163 32
-39 75 -24 198 28 235 56 39 124 2 134 -74 l6 -40 -78 -3 c-52 -2 -80 -7 -83
-15 -3 -10 21 -13 97 -13 l101 0 0 46 c0 55 -23 107 -57 129 -37 25 -95 26
-133 4z"/>
<path d="M1574 454 l-34 -35 0 30 c0 21 -5 31 -15 31 -13 0 -15 -27 -15 -180
0 -173 1 -180 20 -180 19 0 20 7 20 128 0 109 3 132 20 160 19 30 32 37 72 33
9 -1 21 7 27 17 9 17 7 21 -12 26 -39 10 -49 7 -83 -30z"/>
<path d="M1730 300 c0 -173 1 -180 20 -180 19 0 20 7 20 180 0 173 -1 180 -20
180 -19 0 -20 -7 -20 -180z"/>
</g>
</svg>
